<svg xmlns="http://www.w3.org/2000/svg" fill="currentColor" viewBox="0 0 24 24" height="1em"
	width="1em">
	<path
		d="M8.816 3.097a.687.687 0 0 1 .14.77A8.869 8.869 0 0 0 8.17 7.53a8.903 8.903 0 0 0 8.903 8.903 8.868 8.868 0 0 0 3.665-.787.688.688 0 0 1 .91.91 10.28 10.28 0 0 1-9.37 6.047C6.602 22.604 2 18.003 2 12.326a10.28 10.28 0 0 1 6.047-9.37.687.687 0 0 1 .77.141Zm-1.73 1.996a8.903 8.903 0 1 0 12.425 12.425c-.781.19-1.598.291-2.438.291-5.676 0-10.278-4.602-10.278-10.278 0-.84.101-1.656.291-2.438Z" />
	<path
		d="M12.604 2.75a.75.75 0 0 0-1.5 0v2a.75.75 0 0 0 1.5 0v-2Zm6.88 3.43a.75.75 0 1 0-1.06-1.06L17.01 6.534a.75.75 0 1 0 1.06 1.06l1.415-1.414ZM9.225 8.684c.251.252.64.292.97.153a4.25 4.25 0 0 1 5.574 5.574c-.14.328-.1.718.152.97.341.34.911.29 1.12-.144a5.75 5.75 0 0 0-7.673-7.673c-.435.21-.485.78-.144 1.12ZM19.853 12a.75.75 0 0 0 0 1.5h2a.75.75 0 0 0 0-1.5h-2Z" />
</svg>