<svg width="1em" height="1em" viewBox="0 0 12 12" xmlns="http://www.w3.org/2000/svg"
	fill="currentColor">
	<path
		d="M4.40796 1.54902C4.45749 1.5984 4.49073 1.66174 4.50325 1.73056C4.51576 1.79937 4.50693 1.87036 4.47796 1.93402C4.10543 2.75841 3.99288 3.67673 4.15531 4.56669C4.31775 5.45664 4.74745 6.276 5.38719 6.91563C6.02693 7.55527 6.84636 7.98483 7.73634 8.14711C8.62633 8.30939 9.54463 8.19669 10.369 7.82402C10.4325 7.79549 10.5033 7.78694 10.5718 7.7995C10.6403 7.81206 10.7035 7.84513 10.7528 7.89435C10.8021 7.94357 10.8353 8.0066 10.848 8.07512C10.8607 8.14363 10.8523 8.21438 10.824 8.27802C10.4817 9.0359 9.96064 9.69942 9.30554 10.2116C8.65043 10.7239 7.88083 11.0695 7.06277 11.2189C6.24471 11.3682 5.40262 11.3169 4.60877 11.0692C3.81491 10.8216 3.093 10.385 2.50498 9.79699C1.91696 9.20897 1.48039 8.48706 1.23274 7.69321C0.985085 6.89936 0.93374 6.05727 1.08311 5.23921C1.23248 4.42115 1.57811 3.65154 2.09033 2.99644C2.60255 2.34133 3.26607 1.82029 4.02396 1.47802C4.08749 1.44927 4.15828 1.44056 4.22689 1.45307C4.29549 1.46558 4.35866 1.4987 4.40796 1.54802V1.54902ZM3.54296 2.54702C3.01787 2.92331 2.58096 3.40936 2.26255 3.97143C1.94415 4.53351 1.75188 5.15815 1.69909 5.80198C1.64631 6.44582 1.73427 7.09343 1.95687 7.69987C2.17947 8.3063 2.53138 8.85702 2.98816 9.31381C3.44495 9.7706 3.99568 10.1225 4.60211 10.3451C5.20854 10.5677 5.85616 10.6557 6.49999 10.6029C7.14383 10.5501 7.76847 10.3578 8.33054 10.0394C8.89262 9.72102 9.37867 9.28411 9.75496 8.75902C8.89742 8.96828 8.00045 8.95317 7.15045 8.71515C6.30045 8.47714 5.52607 8.02423 4.9019 7.40007C4.27774 6.77591 3.82484 6.00153 3.58682 5.15153C3.34881 4.30153 3.3337 3.40455 3.54296 2.54702Z"
	/>
	<path fill-rule="evenodd"
		d="M8.99997 0.625C9.14197 0.625 9.27197 0.705 9.33497 0.832L9.64697 1.455C9.78097 1.728 9.83397 1.826 9.89197 1.901C9.95097 1.977 10.019 2.046 10.096 2.106C10.166 2.157 10.246 2.199 10.438 2.298L10.55 2.356L11.168 2.665C11.2297 2.69648 11.2816 2.74444 11.3178 2.80356C11.3541 2.86268 11.3732 2.93066 11.3732 3C11.3732 3.06934 11.3541 3.13732 11.3178 3.19644C11.2816 3.25556 11.2297 3.30352 11.168 3.335L10.545 3.647C10.272 3.781 10.174 3.834 10.099 3.892C10.0225 3.95099 9.95395 4.01955 9.89497 4.096C9.82239 4.20515 9.75788 4.31945 9.70196 4.438L9.64397 4.55L9.33497 5.168C9.30374 5.23007 9.25588 5.28225 9.19673 5.31871C9.13757 5.35517 9.06945 5.37448 8.99997 5.37448C8.93048 5.37448 8.86236 5.35517 8.80321 5.31871C8.74405 5.28225 8.69619 5.23007 8.66497 5.168L8.35296 4.545C8.21896 4.272 8.16596 4.174 8.10796 4.099C8.04894 4.02258 7.98039 3.95402 7.90396 3.895C7.79482 3.82242 7.68051 3.75792 7.56196 3.702L7.44997 3.644L6.83196 3.335C6.76989 3.30377 6.71771 3.25591 6.68125 3.19676C6.64479 3.13761 6.62549 3.06949 6.62549 3C6.62549 2.93051 6.64479 2.86239 6.68125 2.80324C6.71771 2.74409 6.76989 2.69623 6.83196 2.665L7.45497 2.353C7.72797 2.219 7.82597 2.166 7.90097 2.108C7.97697 2.05 8.04596 1.981 8.10496 1.904C8.17754 1.79485 8.24205 1.68055 8.29797 1.562L8.35597 1.45L8.66497 0.832C8.69612 0.769828 8.74395 0.717543 8.80311 0.680988C8.86227 0.644433 8.93042 0.625049 8.99997 0.625ZM8.99997 1.838C9.11197 2.066 9.19397 2.224 9.29797 2.359C9.39797 2.488 9.51296 2.603 9.64096 2.702L9.64697 2.707C9.77097 2.798 9.91497 2.872 10.102 2.968L10.162 2.999C9.97917 3.08122 9.80498 3.18137 9.64197 3.298C9.51197 3.398 9.39697 3.513 9.29797 3.641L9.29297 3.647C9.1943 3.79167 9.10704 3.9438 9.03196 4.102L8.99997 4.162C8.9178 3.97886 8.81764 3.80433 8.70097 3.641C8.60197 3.51229 8.48668 3.39699 8.35796 3.298L8.35197 3.293C8.20729 3.19434 8.05517 3.10708 7.89697 3.032L7.83797 3C8.02111 2.91784 8.19563 2.81768 8.35897 2.701C8.48797 2.601 8.60296 2.486 8.70196 2.358L8.70696 2.352C8.79796 2.228 8.87197 2.084 8.96797 1.897L8.99997 1.838Z"
	/>
</svg>