<svg xmlns="http://www.w3.org/2000/svg" viewBox="0 0 24 24" height="1em" width="1em"
	fill="currentColor">
	<path
		d="M8 1h7c1.5 0 2.5 0 3.4.4a4 4 0 0 1 1.8 1.8c.4.9.4 1.9.4 3.4v5.9a1 1 0 0 1-2 0V6.8c0-1.8 0-2.3-.2-2.8a2 2 0 0 0-.8-.8c-.5-.2-1-.2-2.8-.2H8.3C6.5 3 6 3 5.5 3.2a2 2 0 0 0-.8.8c-.2.5-.2 1-.2 2.8v10.4c0 1.7 0 2.3.2 2.7.2.4.5.7.9 1l2.7.1H12a1 1 0 0 1 0 2H8.1a8.6 8.6 0 0 1-3.5-.4 5 5 0 0 1-1.7-1.8 8.6 8.6 0 0 1-.4-3.6V6.6A8.6 8.6 0 0 1 2.9 3a4 4 0 0 1 1.8-1.7C5.6 1 6.6 1 8.1 1ZM6.6 7c0-.6.4-1 1-1h8a1 1 0 0 1 0 2h-8a1 1 0 0 1-1-1Zm0 4c0-.6.4-1 1-1h6a1 1 0 0 1 0 2h-6a1 1 0 0 1-1-1Zm0 4c0-.6.4-1 1-1h2a1 1 0 0 1 0 2h-2a1 1 0 0 1-1-1Zm11 0c.6 0 1 .4 1 1v3.6l1.3-1.3a1 1 0 0 1 1.4 1.4l-3 3a1 1 0 0 1-1.4 0l-3-3a1 1 0 0 1 1.4-1.4l1.3 1.3V16c0-.6.4-1 1-1Z"
	/>
</svg>