<svg xmlns="http://www.w3.org/2000/svg" height="1em" width="1em" viewBox="0 0 24 24">
	<path
		d="M12 1.5a10.5 10.5 0 0 0-3.32 20.46c.52.1.72-.22.72-.5l-.01-1.95c-2.64.48-3.32-.65-3.53-1.24-.12-.3-.63-1.23-1.08-1.48-.37-.2-.9-.68-.01-.7.83 0 1.42.77 1.61 1.08.95 1.59 2.46 1.14 3.06.87.1-.68.37-1.14.67-1.4-2.34-.27-4.78-1.18-4.78-5.2 0-1.13.4-2.08 1.08-2.81-.1-.27-.47-1.34.1-2.79 0 0 .88-.27 2.9 1.08a9.74 9.74 0 0 1 5.24 0c2-1.36 2.89-1.08 2.89-1.08.58 1.45.2 2.52.1 2.79a4.06 4.06 0 0 1 1.08 2.82c0 4.03-2.45 4.92-4.8 5.18.39.33.72.96.72 1.95l-.02 2.88c0 .28.2.6.73.5A10.52 10.52 0 0 0 12 1.5Z" />
</svg>