<svg xmlns="http://www.w3.org/2000/svg" fill="currentColor" height="1em" width="1em"
	viewBox="0 0 24 24">
	<path fill-rule="evenodd"
		d="m20 5.06-5.953 15.254-.046.12-.047-.12-2.578-6.63L20 5.06Zm-9.685 7.564 8.625-8.625L3.685 9.952a92.29 92.29 0 0 0-.12.047l.12.046 6.63 2.579Zm10.402-10.91c.176-.051.48-.126.798-.02.373.125.665.418.79.79.106.318.032.622-.02.799-.054.188-.144.417-.239.66L15.433 20.89a9.668 9.668 0 0 1-.297.71c-.083.17-.243.469-.56.633a1.25 1.25 0 0 1-1.153 0c-.316-.165-.476-.464-.56-.634a9.475 9.475 0 0 1-.295-.711L9.928 14.1a3.008 3.008 0 0 1-.008-.02l-.02-.008-6.787-2.64a9.675 9.675 0 0 1-.712-.296c-.17-.084-.468-.243-.633-.56a1.25 1.25 0 0 1 0-1.153c.164-.316.463-.476.632-.56.19-.093.438-.19.71-.297l16.946-6.613c.244-.095.472-.184.66-.239Z" />
</svg>