<svg xmlns="http://www.w3.org/2000/svg" viewBox="0 0 24 24" fill="currentColor">
	<path
		d="M12 22.5a10.5 10.5 0 1 0 0-21 10.5 10.5 0 0 0 0 21Zm3.19-11.1.18.09c.85.4 1.48 1.03 1.8 1.79.46 1.06.5 2.8-.88 4.17-1.06 1.06-2.34 1.54-4.16 1.55-2.06-.01-3.63-.7-4.69-2.05C6.5 15.75 6.02 14.1 6 12c.02-2.1.5-3.76 1.44-4.95C8.5 5.7 10.07 5 12.12 5h.01c2.05.01 3.64.7 4.73 2.04.54.66.93 1.46 1.18 2.38l-1.17.32c-.21-.76-.52-1.4-.94-1.91-.85-1.05-2.13-1.58-3.8-1.6-1.67.02-2.93.55-3.74 1.6-.77.96-1.16 2.37-1.18 4.17.02 1.8.41 3.2 1.18 4.18.81 1.04 2.07 1.57 3.74 1.58 1.5 0 2.49-.36 3.31-1.19.94-.94.93-2.1.63-2.8-.18-.4-.5-.75-.94-1.01-.1.78-.34 1.4-.72 1.89-.5.63-1.2.98-2.11 1.03a3.1 3.1 0 0 1-1.87-.47c-.6-.4-.96-1.02-1-1.73-.08-1.4 1.04-2.42 2.78-2.52.62-.04 1.2 0 1.73.08a2.05 2.05 0 0 0-.43-1.02c-.3-.34-.75-.52-1.35-.52h-.02c-.48 0-1.14.13-1.55.77l-1.01-.7a2.95 2.95 0 0 1 2.56-1.3h.03c1.82 0 2.91 1.14 3.02 3.14Zm-4.55 2.01c.04.73.83 1.08 1.59 1.03.75-.04 1.6-.33 1.74-2.13a5.95 5.95 0 0 0-1.7-.12c-1.24.07-1.66.68-1.63 1.22Z"
	/>
</svg>