<svg xmlns="http://www.w3.org/2000/svg" viewBox="0 0 1598.07 579.93">
	<path
		d="M455.21 367.76c13.11-9 25.64-16.83 39.35-22.57 8.61-3.6 17.36-6.74 26.94-6.55 14.53.3 26.28 8.38 31.57 21.93.84 2.17 1.48 4.41 2.32 6.93 8-4.8 15.89-9.65 23.9-14.24 10.24-5.88 20.68-11.34 32.43-13.75 20.64-4.23 35.77 4.93 41.51 25.2 4.39 15.48 3.54 31.36 3.44 47.15-.11 17.16-.68 34.31-1 51.46-.21 10.12 5.75 16.37 16.66 17.22a86.38 86.38 0 0 0 11.49.09c3.15-.18 2.94 1.65 3 3.77s-.24 3.36-2.91 3.35q-38.48-.13-77 0c-2.84 0-2.84-1.48-2.72-3.44.1-1.71-.63-4 2.46-3.63a6.68 6.68 0 0 0 1 0c18.58-.84 22.3-4.72 23.54-23.4 1.48-22.14.74-44.3.82-66.45a61.46 61.46 0 0 0-2.39-16.76c-4.64-16.58-16.16-23.63-33-19.95-14.4 3.15-26.72 10.78-39 18.53-1.8 1.14-1.65 2.67-1.65 4.33 0 28.32-.06 56.64.13 85 .09 13.25 4.74 17.81 18.07 18.63 2.49.15 4.76-.41 4.7 3.71s-2.55 3.41-4.91 3.41h-66c-2.17 0-4.6.86-4.66-3.12-.05-3.6 1.47-3.86 4.38-4 16.36-1.1 23.22-8 23.39-24.29.26-24.65.34-49.31 0-74-.31-21.33-15.73-32.82-36.37-27.62-13.94 3.51-25.83 11.2-37.79 18.76-1.79 1.13-1.75 2.6-1.75 4.28q0 41.48.09 83a42.38 42.38 0 0 0 .84 7.43c1.2 6.66 4.72 10.27 11.41 11.52a53.28 53.28 0 0 0 9.42 1c2.75 0 4.13.31 4.16 3.71 0 3.69-1.89 3.45-4.37 3.45q-34-.06-68 0c-2.1 0-4.25.61-4.27-3 0-3.31 1-4 4.19-4.23 14.83-1.13 21.11-7.09 21.54-22 .81-28.14.75-56.3 0-84.44-.23-8.56-3.06-11.12-11.45-12.13-3.14-.38-6.28-.79-9.42-1.1-1.89-.19-3.67-.17-3.58-2.94.08-2.22-.06-4 2.75-5 13.22-4.45 26.33-9.24 39.55-13.69 5.93-2 7.14-.93 7.14 5.33Zm-177.5-59.28c-2-.46-.94-3-2.71-2.91s-2.17 1.89-2.76 3.19c-3 6.75-6 13.53-10.16 20.11v-17.14c0-1.48.38-3.32-1.17-4.08-1.92-.94-1.94 1.83-3.68 2.35-.37-7.92.84-15.58 1.63-23.26.28-2.62.8-5.56-4.23-3.63 6-47.76 17.7-92.77 55-126.24 27.43-24.61 60.15-37.49 97.08-39.08 12.64-.55 25.31-.61 38-.79 10-.15 20-.19 29.94-1.06a166.23 166.23 0 0 0 29.22-4.9c-.11 5.23-2.11 9.34-4.7 13.2-5.42 8.06-12.91 13.82-21.17 18.66-19.34 11.32-40.6 17.21-62.28 21.9-6.82 1.47-13.73 2.45-20.63 3.51-23.21 3.55-41.2 16.1-56.06 33.65-26 30.68-44.18 65.89-59.73 102.63-.53 1.22-1.01 2.48-1.59 3.89Z" />
	<path
		d="M719.11 366.23c11.28-8.18 21.95-15.51 33.86-20.8 24.42-10.84 45-5.61 61.33 15.67 35.78 46.65 6.58 119.38-51.59 128.4-13.51 2.09-26.57-.3-39.18-5-4.13-1.55-4.53-.45-4.5 3.36.16 20.15.06 40.31.1 60.47a43.15 43.15 0 0 0 .53 7.45c1.94 10.82 8 16.19 19 16.91a94.15 94.15 0 0 0 10.49.14c2.71-.12 3.81.58 3.83 3.56s-1.05 3.57-3.77 3.56q-39.74-.12-79.47 0c-2.87 0-3.6-.85-3.64-3.66-.05-3.09 1.29-3.39 3.87-3.48 19-.63 24.29-5.77 24.35-24.76.16-57 .07-113.94 0-170.91 0-7.13-1.8-9.32-8.75-11.33-3.19-.93-6.46-1.57-9.65-2.52-1.41-.42-3.69-.12-3.45-2.67.19-2.17-1-4.63 1.72-6.28 12.07-7.36 24-15 36.14-22.18 5.51-3.26 8.73-1.06 8.73 5.3Zm0 51.1v38c0 2.22.14 4 2.17 5.65 8.13 6.5 16.8 12 26.71 15.28 18.41 6.17 35.29.62 46.55-15.28a55 55 0 0 0 10-25.78c2.37-21.08 0-41.32-13.09-58.93-14.06-18.93-34.38-23.36-55.2-12.48a103.5 103.5 0 0 0-14.16 9.28 6.9 6.9 0 0 0-3.05 6.26c.16 12.68.07 25.34.07 38ZM132.6 254.44c22.1-.39 43.3 4.11 64 11.48 6.4 2.28 12.74 4.84 19.67 1.06 1.53-.84 4.81-1.57 5 2.89.71 15.3 1.89 30.58 2.75 45.88.07 1.39 1.6 4.06-1.72 4.08-2.28 0-4.83 1-6.11-2.47-11.8-32-44.59-57.19-92.35-53.45-41.36 3.23-74 29.51-84.36 70-11.26 44-4.22 84.74 27.31 119.07 41.82 45.53 121 43.34 157.17-17.46 1.74-2.92 2.91-6.44 7.62-5.57 1.91.35 2.56.46 1.87 2.65a250.79 250.79 0 0 1-21.58 49.19c-.72 1.25-1.49 2-3.12 1.79-13.93-1.74-27 3-40.3 5.66-37 7.52-73.19 6.35-107.47-11.42-42.4-22-65.31-66.64-60.32-114 6-56.64 47.2-97.52 103.58-107.11a171.61 171.61 0 0 1 28.36-2.27Zm84.41-73.71a239.61 239.61 0 0 1 83.65-80.66c17.23-10 34.85-19.4 52.22-29.19 29.79-16.79 54.59-39 73.45-67.67 1-1.5 1.87-3.59 4-3.2 2.34.43 1.86 2.9 2.18 4.56 4.39 22.68-1.81 43.19-13.51 62.31-14 22.9-33.87 39.91-57.5 51.89-30.69 15.55-61.51 30.76-90.71 49.15-1-2 1.38-3.26.07-5.19-3.78.83-6.18 4-9.3 5.94-3.83 2.4-6 6.74-12 6.85-3.77.08-7.42 4.61-11.21 7-1.44.91-2.84 3.77-4.86.26-.67-1.16-2.49-.1-3.62.53-2.58 1.47-5.1 3-7.65 4.56l-.34-.35c1.64-6.27 1.64-6.27-5-6.89ZM1470.14 367.4c4.91-3 9.07-5.64 13.27-8.19 11.08-6.74 22.09-13.58 34.46-17.84a45.42 45.42 0 0 1 22.61-2.24c14.26 2.4 22.81 11.4 27.55 24.56 3.61 10 4.23 20.46 4.31 31 .16 23-1 45.94-2.67 68.87-.79 10.73 2.52 14.9 13.28 16.53a65.33 65.33 0 0 0 12 .52c2.87-.1 3.29 1.11 3.16 3.51-.12 2.1.17 3.69-3 3.67q-36.48-.23-73 0c-2.6 0-3.07-1.08-2.94-3.29.12-2-.4-4.06 2.81-4a27.39 27.39 0 0 0 5.93-.81c8.74-1.75 14.69-6.21 16.52-15.59 3.27-16.8 3-33.81 3.3-50.76.21-12.29 1.26-24.66-1.51-36.84-4.44-19.54-19.63-28-38.46-21.27-13 4.63-24.28 12.29-35.63 19.85-1.63 1.08-2 2.38-2 4.18q.11 40 .11 79.95v1c1 15.23 5.37 19.77 20.58 20.3 3.9.14 4.25 1.67 4.09 4.77-.11 2.06-1 2.46-2.77 2.46-22.82 0-45.65-.07-68.47 0-2.92 0-2.64-1.61-2.66-3.49 0-2.09-.17-3.58 2.93-3.79 9.9-.66 17.71-4.77 20.59-15a37.55 37.55 0 0 0 1.11-9.88q.13-36.74 0-73.46c0-16.57-.65-17.18-17-20.45-1-.19-1.93-.51-2.91-.7-1.73-.34-3.73-.06-3.73-2.89 0-2.36.23-3.91 2.94-4.85 12.54-4.37 25-9.1 37.49-13.53 6.68-2.36 7.63-1.54 7.63 5.54Z" />
	<path
		d="M1342.91 491.95c-37.57-.13-68.23-22.55-77.31-56.53a76.53 76.53 0 0 1 63.22-95.71c36.36-5.21 69.36 10.59 84.11 41 25.17 51.81-10.26 111.63-70.02 111.24Zm50.54-66.77a105.24 105.24 0 0 0-1.44-17.74c-3.82-20-11.79-37.77-28.36-50.55-18.25-14.06-40.24-12.29-56.31 4.21a55.73 55.73 0 0 0-10.24 14.66c-8.46 17.41-7.58 35.47-3.33 53.63 4.15 17.78 12.14 33.44 27.11 44.65 18.31 13.71 40.08 11.92 55.89-4.56 12.24-12.73 16.71-28.41 16.68-44.3ZM326.01 491.96c-35.92-.23-66-21.24-76-53a76.58 76.58 0 0 1 61-99.12c35.91-5.91 69.95 9.93 85 40.24 25.65 51.73-9.4 112.38-70 111.88Zm51-67.89a109.51 109.51 0 0 0-1.9-18.25c-4.07-19.79-12.28-37.3-29-49.62-18.27-13.47-40.33-11.19-55.85 5.37a59 59 0 0 0-11.25 17.5c-6.45 15.22-5.9 30.89-2.72 46.58 3.71 18.35 11.26 34.79 26.15 46.95 19.2 15.67 42.7 13.77 59.2-4.73 11.09-12.41 15.04-27.43 15.37-43.8Zm541.56 46.2c-7.71 6-14.92 11.85-22.95 16.59-11.17 6.6-22.89 6.66-34.63 2.48-10.58-3.76-16.73-11.61-18.15-22.95-1.44-11.55 2.07-21 11.64-27.91 8.67-6.25 18.73-9.2 28.91-11.76a128.2 128.2 0 0 0 31.81-12.78c1.82-1 3.1-1.93 3.06-4.46-.21-11.66.27-23.34-.33-35-.61-11.94-8-19.53-18.61-23.67-9.72-3.78-18.33-.79-25.5 6.41-4 4-6.27 8.67-4 14.43.82 2.06 0 3-1.76 3.81a651.5 651.5 0 0 0-19.73 9.56c-2.66 1.36-3.18.18-3.44-2.06a13.57 13.57 0 0 1 .68-6.38c5.3-14.53 34-40.22 56.38-37.89 14.43 1.5 26.36 7.49 35.32 19.13 5.14 6.67 5.55 14.45 5.59 22.3.11 25.15.11 50.3.15 75.45a56.17 56.17 0 0 0 1 11.5c1.2 5.77 4 7.88 9.89 7.41 5.17-.42 9.46-2.88 13.57-5.82.89-.64 2-2.73 3.07-1 .81 1.36 2.7 3.43.35 5.28-9.29 7.3-18.47 14.89-30 18.39-9.16 2.78-16.62-1.25-19.76-10.34-1.12-3.29-1.63-6.76-2.56-10.72Zm-.39-50.35c-4.6 2.21-8.45 4.11-12.34 5.94-9.61 4.52-19.85 7.69-29 13.1-10.8 6.35-14.06 18.59-8.06 29.27 5.76 10.26 18 13.72 28.94 8.05 6.51-3.38 12.44-7.68 18.52-11.75a3.92 3.92 0 0 0 2-3.64c-.08-13.48-.06-26.96-.06-40.97ZM355.33 40.76c-.42 15-7.49 26.11-20.44 33.12-16.62 9-33.43 8.35-49.2-2.05-25.12-16.55-23.38-50.78 3-65.2 20.4-11.14 47.09-5.34 59.87 13.05a35.47 35.47 0 0 1 6.77 21.08Zm703.68 320.41v13.48c0 1.71.29 3.43-2.38 3.16-1.89-.19-4 .59-4.46-2.5a35.6 35.6 0 0 0-7.16-16.81c-7.18-9.41-18.71-13.26-29.25-9.82-12.83 4.18-18.25 17.33-12.08 29.31 2.73 5.31 6.95 9.29 11.55 12.92 7.47 5.88 15.72 10.6 23.6 15.87 6.37 4.27 12.59 8.73 17.92 14.29 11.15 11.61 15.34 25.28 10.73 40.83-4.67 15.76-16 24.88-31.66 28.73a52.78 52.78 0 0 1-29.52-1.45c-4.94-1.63-10.05-3.76-14.52 1.9-1.92 2.43-5.64.53-6-2.74q-1.77-17.13-3.44-34.27c-.11-1.19-1.27-3.26 1.35-3.36 2-.07 4.3-.85 4.94 2.44a44.15 44.15 0 0 0 5.82 14.77c6.9 11.13 16.53 17.67 30.08 16.92 10.14-.56 17.9-5.36 22.06-14.67s2.48-17.84-4.1-25.55c-7.62-9-16.69-16.22-26.36-22.79-5.92-4-11.85-8-17.71-12.12-12.43-8.71-18.17-20.59-16-35.73 2.27-16 11.6-26.64 26.57-32 15.73-5.67 31.42-3.86 46.92 1.55 2.06.72 2.41 1.88 2.39 3.7v14Zm103.43-.01v13c0 1.7.79 3.83-2.38 3.69-2.25-.09-3.73.07-4.4-3-2.67-12.36-8.57-22.39-21.59-26.32-10.07-3-20.89.64-26.13 8.65s-4.09 17.77 3 26.26c4.52 5.45 10.25 9.48 16.07 13.37 8.58 5.72 17.54 10.88 25.62 17.33 9.3 7.42 17.11 16 19.4 28.15 4.28 22.67-9.74 43.39-32.67 48.44a54.8 54.8 0 0 1-29.06-1.39c-5.12-1.64-10.36-4-15 1.8-1.87 2.32-5.71.51-6-2.44q-1.69-17.16-3.21-34.32c-.11-1.31-1.43-3.57 1.6-3.68 2.18-.07 4-.3 4.64 2.89a43.36 43.36 0 0 0 10.42 20.71c8.83 9.48 19.66 13.07 32.16 9.34 16.82-5 22.71-24.46 11.79-38.17-7.55-9.48-17-16.83-27-23.6-5.92-4-11.86-8-17.72-12.11-13-9.11-18.44-21.64-15.77-37.26 2.62-15.32 12-25.39 26.36-30.54 15.75-5.63 31.43-3.84 46.93 1.6a3.23 3.23 0 0 1 2.5 3.65c-.09 4.66 0 9.33 0 14Zm76.57 39.91v55.45c0 16.25 5.77 22.71 22 24 3.31.26 4.53.9 4.4 4.47-.15 4.26-3 2.72-4.91 2.73q-36 .13-72 0c-2 0-4.58 1.11-4.67-3-.09-3.93 1.62-4.19 4.67-4.16a41.66 41.66 0 0 0 7.92-.93c11-2.08 17.26-8.86 17.55-20.37.43-17.31.3-34.63.32-51.95 0-11.15 0-22.31-.28-33.46-.17-7.07-2.41-9.54-9.19-11a422.44 422.44 0 0 0-16.17-3.07c-2-.33-3-1.06-2.83-3.19.12-1.81-.19-3.38 2.29-4.21 14.79-5 29.46-10.31 44.26-15.26 5.47-1.83 6.62-.72 6.62 5Zm335.56-120.59a22.21 22.21 0 0 1 22.5 22.39 22.63 22.63 0 1 1-45.25-.25c.1-12.55 10.05-22.19 22.75-22.14Zm-18.56 22.36c0 11 7.87 19.25 18.46 19.28s18.54-8.31 18.54-19.25c0-10.59-8-19-18.26-19.08-10.59-.11-18.74 8.18-18.74 19.05ZM222.27 187.92c-.1.42-.29 1-.77.58s0-.75.43-.93Zm-5.35-7.24.29.63-.39.15.23-.73Z" />
	<path
		d="M1582.24 308.6a17.45 17.45 0 0 0-2.53-3.59 5.65 5.65 0 0 0-.84-.73 7.18 7.18 0 0 0 3.84-2.36 7.71 7.71 0 0 0 1.65-5 9 9 0 0 0-1-4.19 5.87 5.87 0 0 0-2.72-2.72 11.88 11.88 0 0 0-4.75-.75h-10.41v27.21h4v-11.64h2.93a6.71 6.71 0 0 1 1.51.11 3.7 3.7 0 0 1 1.18.61 7.06 7.06 0 0 1 1.39 1.63c.55.83 1.26 2 2.11 3.58l3.09 5.71h4.86Zm-6.93-7.77h-5.85v-7.68h6.55a4.39 4.39 0 0 1 3.27 1 3.74 3.74 0 0 1 1 2.72 4.38 4.38 0 0 1-.53 2.11 2.91 2.91 0 0 1-1.5 1.35 7.72 7.72 0 0 1-2.94.5Z" />
</svg>