<?xml version="1.0" standalone="no"?>
<!DOCTYPE svg PUBLIC "-//W3C//DTD SVG 20010904//EN"
 "http://www.w3.org/TR/2001/REC-SVG-20010904/DTD/svg10.dtd">
<svg version="1.0" xmlns="http://www.w3.org/2000/svg"
 width="652.000000pt" height="652.000000pt" viewBox="0 0 652.000000 652.000000"
 preserveAspectRatio="xMidYMid meet">
<metadata>
Created by potrace 1.14, written by Peter Selinger 2001-2017
</metadata>
<g transform="translate(0.000000,652.000000) scale(0.100000,-0.100000)"
fill="#000000" stroke="none">
<path d="M490 4780 l0 -180 140 0 140 0 0 -1175 0 -1175 143 1 142 0 778 895
777 895 0 460 0 459 -1060 0 -1060 0 0 -180z"/>
<path d="M2393 3421 l-1338 -1540 -287 0 -288 -1 0 -170 0 -170 1053 1 1052 0
1368 1535 1368 1534 145 0 144 0 0 175 0 175 -939 0 -940 0 -1338 -1539z"/>
<path d="M3555 2263 c-291 -327 -531 -598 -532 -601 -1 -4 31 -33 71 -64 l74
-58 1431 0 1431 0 0 170 0 170 -241 0 -240 0 -719 485 c-395 267 -725 487
-732 489 -8 3 -233 -243 -543 -591z"/>
</g>
</svg>
